<svg width="11" height="11" viewBox="0 0 11 11" fill="none" xmlns="http://www.w3.org/2000/svg">
<path d="M5.5029 5.68495L2.69364 2.87581C2.55105 2.73308 2.37665 2.66187 2.17046 2.66187C1.9643 2.66187 1.78998 2.7331 1.64741 2.87581L1.21382 3.30926C1.07129 3.45177 1 3.62619 1 3.8323C1 4.0384 1.07129 4.21274 1.21382 4.35547L4.97683 8.12421C5.11942 8.26683 5.2938 8.33813 5.50001 8.33813C5.70622 8.33813 5.88045 8.26685 6.02311 8.12421L9.78612 4.35549C9.92871 4.21276 10 4.03844 10 3.83232C10 3.62619 9.92871 3.45179 9.78612 3.30928L9.35261 2.87583C9.2101 2.7331 9.03669 2.66189 8.83235 2.66189C8.62817 2.66189 8.45282 2.73312 8.3064 2.87583L5.5029 5.68495Z" fill="white"/>
</svg>
