<svg width="120" height="120" viewBox="0 0 120 120" fill="none" xmlns="http://www.w3.org/2000/svg">
<path d="M92.8978 79.0472C95.8659 79.0447 98.8003 78.4186 101.511 77.2095C104.222 76.0004 106.648 74.2353 108.633 72.0285C110.618 69.8218 112.117 67.2226 113.033 64.3994C113.949 61.5762 114.262 58.5921 113.951 55.6403C113.64 52.6886 112.712 49.8351 111.228 47.2647C109.744 44.6944 107.736 42.4646 105.335 40.7197C102.934 38.9749 100.193 37.7541 97.2902 37.1363C94.3871 36.5185 91.3866 36.5175 88.4831 37.1334C86.8067 30.86 83.1061 25.3155 77.9558 21.3607C72.8055 17.4059 66.4935 15.2621 60 15.2621C53.5064 15.2621 47.1945 17.4059 42.0442 21.3607C36.8938 25.3155 33.1932 30.86 31.5169 37.1334C28.6134 36.5175 25.613 36.5185 22.7099 37.1362C19.8069 37.754 17.066 38.9749 14.665 40.7196C12.2639 42.4644 10.2562 44.6941 8.77196 47.2644C7.28772 49.8347 6.36007 52.6882 6.0491 55.6399C5.73814 58.5916 6.05081 61.5757 6.96684 64.3988C7.88288 67.222 9.38185 69.8212 11.3666 72.028C13.3514 74.2348 15.7777 76 18.4882 77.2092C21.1988 78.4184 24.1332 79.0446 27.1012 79.0472H92.8978Z" fill="url(#paint0_linear_1_833)"/>
<path d="M60 104.737C74.1884 104.737 85.6903 93.2355 85.6903 79.0472C85.6903 64.8588 74.1884 53.3569 60 53.3569C45.8116 53.3569 34.3097 64.8588 34.3097 79.0472C34.3097 93.2355 45.8116 104.737 60 104.737Z" fill="url(#paint1_linear_1_833)"/>
<path d="M55.3621 75.7481V87.8662H64.6377V75.7481H71.8612L59.9999 63.8869L48.1387 75.7481H55.3621Z" fill="#EDF5FF"/>
<path d="M64.6377 95.8481H55.3621C54.9269 95.8481 54.5096 95.6753 54.202 95.3676C53.8943 95.0599 53.7214 94.6426 53.7214 94.2075C53.7214 93.7724 53.8943 93.3551 54.202 93.0474C54.5096 92.7397 54.9269 92.5669 55.3621 92.5669H64.6377C65.0728 92.5669 65.4901 92.7397 65.7978 93.0474C66.1055 93.3551 66.2783 93.7724 66.2783 94.2075C66.2783 94.6426 66.1055 95.0599 65.7978 95.3676C65.4901 95.6753 65.0728 95.8481 64.6377 95.8481Z" fill="#EDF5FF"/>
<defs>
<linearGradient id="paint0_linear_1_833" x1="60" y1="79.0472" x2="60" y2="15.2621" gradientUnits="userSpaceOnUse">
<stop stop-color="#C3FFE8"/>
<stop offset="0.9973" stop-color="#F0FFF4"/>
</linearGradient>
<linearGradient id="paint1_linear_1_833" x1="60.0001" y1="104.737" x2="60.0001" y2="53.3569" gradientUnits="userSpaceOnUse">
<stop stop-color="#00B59C"/>
<stop offset="1" stop-color="#9CFFAC"/>
</linearGradient>
</defs>
</svg>
