<svg width="20" height="21" viewBox="0 0 20 21" fill="none" xmlns="http://www.w3.org/2000/svg">
<g clip-path="url(#clip0_94_219)">
<path d="M18.0105 16.5583C17.424 16.3181 17.1732 15.9994 17.1974 15.5238C17.2224 14.9686 16.9075 14.562 16.7579 14.4013C16.8482 14.0562 17.1123 12.8621 16.7581 11.8249C16.3775 10.7147 15.2156 9.01914 14.0166 7.35244C13.5258 6.66798 13.5026 5.92397 13.4758 5.06246C13.4501 4.24075 13.4211 3.30933 12.9628 2.27391C12.4646 1.1465 11.4649 0.5 10.2198 0.5C9.47914 0.5 8.71887 0.731477 8.13382 1.13502C6.93578 1.96185 7.09414 3.76455 7.19893 4.95741C7.21329 5.12075 7.2268 5.27505 7.23467 5.40679C7.30444 6.57506 7.24096 7.1908 7.15795 7.37795C7.10424 7.50024 6.83985 7.84831 6.56004 8.21684C6.27066 8.59796 5.94259 9.02996 5.67367 9.43252C5.35282 9.91691 5.0938 10.6573 4.84331 11.3733C4.66003 11.8973 4.48691 12.3921 4.31839 12.6879C3.99898 13.2568 4.07845 13.7873 4.14481 14.0325C4.02389 14.1165 3.8492 14.2819 3.70173 14.5936C3.5235 14.9739 3.16185 15.1783 2.40985 15.3229C2.06427 15.3936 1.82598 15.5389 1.70139 15.7548C1.52007 16.069 1.61883 16.4637 1.70893 16.7335C1.84204 17.1301 1.75909 17.3811 1.60827 17.8368C1.57352 17.942 1.53411 18.0611 1.49417 18.1924C1.43129 18.3997 1.45397 18.5882 1.56145 18.7526C1.84545 19.1867 2.67418 19.3399 3.5273 19.4406C4.03668 19.501 4.59419 19.7048 5.13341 19.9019C5.66174 20.095 6.20804 20.2946 6.70463 20.3552C6.78011 20.3647 6.85486 20.3695 6.92693 20.3695C7.6767 20.3695 8.01546 19.872 8.12287 19.6676C8.39218 19.6126 9.32104 19.4367 10.2784 19.413C11.2342 19.3858 12.159 19.5745 12.4209 19.6332C12.5033 19.7908 12.7204 20.1509 13.0665 20.3364C13.2567 20.4404 13.5215 20.5 13.7926 20.5C13.7927 20.5 13.7926 20.5 13.7927 20.5C14.0823 20.5 14.6331 20.4315 15.0691 19.9729C15.504 19.512 16.5906 18.9237 17.384 18.4941C17.5611 18.3982 17.7267 18.3085 17.872 18.2275C18.3177 17.9804 18.5609 17.6274 18.5392 17.2589C18.5211 16.9529 18.3185 16.6844 18.0105 16.5583ZM8.14359 16.4696C8.08812 16.0788 7.58536 15.6912 7.00313 15.2424C6.52706 14.8754 5.98745 14.4594 5.83879 14.1072C5.53158 13.3805 5.77374 12.1027 6.19597 11.4447C6.40463 11.1153 6.57506 10.6157 6.73991 10.1325C6.91788 9.61082 7.10195 9.0714 7.30778 8.83527C7.63375 8.46661 7.935 7.74929 7.98838 7.18398C8.29363 7.47539 8.76714 7.84516 9.20458 7.84516C9.27193 7.84516 9.3373 7.83638 9.3998 7.81874C9.69908 7.73231 10.1393 7.47795 10.565 7.23204C10.932 7.01998 11.3846 6.75847 11.5549 6.73466C11.8469 7.15395 13.5436 10.9088 13.717 12.1146C13.8542 13.0687 13.7093 13.8575 13.6364 14.1664C13.5778 14.1584 13.5079 14.1519 13.4344 14.1519C12.9619 14.1519 12.8367 14.4099 12.8041 14.5639C12.7203 14.9641 12.7115 16.2438 12.7106 16.5313C12.5397 16.7484 11.6755 17.7709 10.4348 17.9547C9.92937 18.0281 9.45744 18.0654 9.03212 18.0654C8.66858 18.0654 8.43658 18.0373 8.34025 18.0227L7.71677 17.3093C7.96261 17.1879 8.20838 16.9318 8.14359 16.4696ZM8.93475 4.70652C8.91527 4.71491 8.89612 4.7239 8.8773 4.73347C8.8754 4.69124 8.87101 4.64842 8.86425 4.60547C8.79619 4.21366 8.53638 3.92927 8.24661 3.92927C8.22517 3.92927 8.20359 3.93091 8.17992 3.93451C8.00753 3.96324 7.87231 4.09275 7.79821 4.27635C7.8632 3.87347 8.09146 3.57517 8.36228 3.57517C8.68032 3.57517 8.94897 4.00376 8.94897 4.51104C8.94897 4.57498 8.94432 4.63859 8.93475 4.70652ZM11.406 5.00862C11.4351 4.9159 11.4508 4.81557 11.4508 4.71144C11.4508 4.2515 11.159 3.89117 10.7865 3.89117C10.4224 3.89117 10.1262 4.25911 10.1262 4.71144C10.1262 4.74226 10.1277 4.77314 10.1306 4.80396C10.1113 4.79655 10.0925 4.78934 10.0742 4.78239C10.0323 4.6555 10.0111 4.52311 10.0111 4.38796C10.0111 3.83799 10.3626 3.39051 10.7947 3.39051C11.2268 3.39051 11.5783 3.83799 11.5783 4.38796C11.5783 4.61675 11.5152 4.83511 11.406 5.00862ZM11.0873 6.07905C11.0811 6.10686 11.0679 6.11918 10.9214 6.19538C10.8474 6.23387 10.7553 6.28181 10.6401 6.35197L10.5631 6.3986C10.2538 6.58614 9.52937 7.02542 9.33272 7.05119C9.19914 7.06916 9.11652 7.01735 8.93074 6.89112C8.88884 6.8626 8.84425 6.8323 8.79671 6.80181C8.46182 6.58207 8.24641 6.34004 8.22208 6.24542C8.33127 6.16102 8.60189 5.94981 8.74045 5.82476C9.0217 5.56325 9.30471 5.38751 9.44478 5.38751C9.45219 5.38751 9.45888 5.38803 9.46583 5.38934C9.63042 5.41839 10.0364 5.58043 10.3329 5.69872C10.47 5.75341 10.5883 5.80063 10.6716 5.83053C10.934 5.92063 11.0708 6.03591 11.0873 6.07905ZM13.4445 18.3001C13.5925 17.6325 13.763 16.7243 13.7354 16.1889C13.7291 16.0673 13.7183 15.9349 13.7079 15.8069C13.6884 15.5675 13.6595 15.2118 13.6893 15.1063C13.6952 15.1035 13.7018 15.1011 13.7091 15.0991C13.7103 15.4052 13.7768 16.0158 14.2651 16.2287C14.4106 16.2922 14.5769 16.3243 14.7593 16.3243C15.2484 16.3243 15.7911 16.0844 16.0134 15.8621C16.1443 15.7312 16.2544 15.5711 16.3315 15.4442C16.3484 15.4936 16.3587 15.5581 16.3533 15.6413C16.3242 16.0928 16.5436 16.6917 16.9612 16.9124L17.022 16.9444C17.1707 17.0224 17.5658 17.2298 17.5721 17.3282C17.572 17.3282 17.5688 17.3398 17.5467 17.3602C17.4478 17.4507 17.0995 17.6285 16.7627 17.8005C16.1653 18.1056 15.4881 18.4513 15.184 18.7712C14.7558 19.2218 14.2714 19.5245 13.979 19.5245C13.9438 19.5245 13.9117 19.5201 13.8832 19.511C13.5655 19.412 13.3041 18.9537 13.4445 18.3001ZM2.61752 16.597C2.58513 16.4454 2.55956 16.3257 2.58703 16.2097C2.60697 16.1238 3.03103 16.0318 3.21215 15.9925C3.46677 15.9372 3.73012 15.8801 3.90232 15.7756C4.13517 15.6345 4.26127 15.3744 4.37249 15.1449C4.45301 14.9789 4.53616 14.8073 4.63511 14.751C4.64068 14.7477 4.64921 14.7439 4.66547 14.7439C4.85085 14.7439 5.23984 15.1336 5.46397 15.4824C5.52082 15.5703 5.62613 15.7465 5.74797 15.9505C6.11237 16.5602 6.61132 17.3953 6.87191 17.6752C7.10673 17.9268 7.48687 18.4105 7.39336 18.8254C7.3249 19.1473 6.96044 19.4091 6.87447 19.467C6.84326 19.4741 6.80463 19.4777 6.75919 19.4777C6.26043 19.4777 5.27315 19.0627 4.74272 18.8398L4.66422 18.8068C4.36803 18.6826 3.88448 18.6044 3.41687 18.5287C3.0448 18.4684 2.53529 18.386 2.45083 18.3115C2.38237 18.2347 2.46178 17.9851 2.53182 17.7648C2.58224 17.6065 2.63431 17.4429 2.66283 17.2715C2.70329 16.9982 2.65569 16.7757 2.61752 16.597Z" fill="white"/>
</g>
<defs>
<clipPath id="clip0_94_219">
<rect width="20" height="20" fill="white" transform="translate(0 0.5)"/>
</clipPath>
</defs>
</svg>
