<svg width="18" height="21" viewBox="0 0 18 21" fill="none" xmlns="http://www.w3.org/2000/svg">
<path d="M14.4587 11.126C14.4326 8.5916 16.525 7.37873 16.6178 7.31787C15.4426 5.60073 13.6139 5.36453 12.9603 5.33845C11.4055 5.17905 9.92308 6.25426 9.13189 6.25426C8.3436 6.25426 7.12349 5.36018 5.83237 5.38337C4.13407 5.40945 2.57052 6.37163 1.69529 7.89025C-0.068223 10.9507 1.24318 15.4834 2.96177 17.9685C3.80223 19.1828 4.80498 20.5464 6.11929 20.4986C7.38577 20.4479 7.86396 19.6784 9.39562 19.6784C10.9273 19.6784 11.3577 20.4986 12.6966 20.4739C14.0602 20.4479 14.9224 19.235 15.7556 18.0178C16.7206 16.6078 17.1177 15.2414 17.1423 15.1733C17.1104 15.1559 14.4862 14.1517 14.4587 11.126Z" fill="white"/>
<path d="M11.9402 3.69374C12.6372 2.84893 13.1096 1.67229 12.9806 0.5C11.9735 0.540574 10.7577 1.16802 10.0346 2.01427C9.3869 2.76344 8.82322 3.95892 8.97392 5.10803C10.0955 5.19642 11.2432 4.5371 11.9402 3.69374Z" fill="white"/>
</svg>
