<svg width="32" height="32" viewBox="0 0 32 32" fill="none" xmlns="http://www.w3.org/2000/svg">
<g clip-path="url(#clip0_1_907)">
<path d="M16 31.9999C24.8365 31.9999 31.9999 24.8365 31.9999 16C31.9999 7.16343 24.8365 0 16 0C7.16343 0 0 7.16343 0 16C0 24.8365 7.16343 31.9999 16 31.9999Z" fill="url(#paint0_linear_1_907)"/>
<path d="M25.8394 8.93531C25.0613 8.15729 23.7998 8.15734 23.0217 8.93542L13.1196 18.8375L8.97828 14.6963C8.20019 13.9182 6.9387 13.9182 6.16057 14.6962C5.38236 15.4743 5.3823 16.736 6.16045 17.5141L11.7054 23.0592C12.4864 23.8403 13.7528 23.8403 14.5339 23.0592L25.8395 11.7532C26.6177 10.975 26.6176 9.71341 25.8394 8.93531Z" fill="url(#paint1_linear_1_907)"/>
</g>
<defs>
<linearGradient id="paint0_linear_1_907" x1="16" y1="31.9998" x2="16" y2="0" gradientUnits="userSpaceOnUse">
<stop stop-color="#00B59C"/>
<stop offset="1" stop-color="#18DC66"/>
</linearGradient>
<linearGradient id="paint1_linear_1_907" x1="16" y1="24.4735" x2="16" y2="7.52661" gradientUnits="userSpaceOnUse">
<stop stop-color="#C3FFE8"/>
<stop offset="0.9973" stop-color="#F0FFF4"/>
</linearGradient>
<clipPath id="clip0_1_907">
<rect width="32" height="32" fill="white"/>
</clipPath>
</defs>
</svg>
