<svg width="80" height="80" viewBox="0 0 80 80" fill="none" xmlns="http://www.w3.org/2000/svg">
<path d="M37.1194 47.3697C37.0375 49.7366 35.1833 51.655 32.8028 51.8305C30.5861 51.9923 28.3478 52.0761 26.1525 52.0761C23.9572 52.0761 21.7209 51.9923 19.5041 51.8305C17.1234 51.655 15.2674 49.7366 15.1875 47.3697C14.8327 37.0091 14.8327 26.5139 15.1856 16.1767C15.2675 13.8078 17.1217 11.8914 19.5022 11.7159C21.7189 11.5541 23.9572 11.4703 26.1525 11.4703C28.3478 11.4703 30.5861 11.5541 32.8049 11.7159C35.1834 11.8914 37.0395 13.808 37.1214 16.1767C37.1741 17.7053 37.2169 19.2358 37.2539 20.7702H46.1738C46.1367 19.1325 46.0899 17.5006 46.0335 15.8706C45.7975 8.9414 40.3911 3.33031 33.458 2.8214C31.0228 2.64203 28.5663 2.55234 26.1525 2.55234C23.7408 2.55234 21.2822 2.64203 18.8491 2.8214C11.9161 3.33031 6.50954 8.9414 6.27173 15.8706C5.91111 26.4106 5.91111 37.1103 6.27361 47.6737C6.50954 54.6048 11.9159 60.2141 18.8491 60.7248C21.2822 60.9042 23.7408 60.9939 26.1525 60.9939C28.5663 60.9939 31.0228 60.9042 33.458 60.7248C40.3891 60.2141 45.7955 54.6048 46.0335 47.6737C46.0627 46.8022 46.09 45.9287 46.1153 45.0534H37.1916C37.1702 45.8275 37.1467 46.5995 37.1194 47.3697Z" fill="url(#paint0_linear_1_787)"/>
<path d="M26.1531 71.7211C20.2505 71.7211 14.298 71.5498 8.35533 71.2102C4.08439 70.9661 0.669389 67.568 0.399233 63.2986C-0.132173 54.9028 -0.133111 46.4784 0.397358 38.097C0.667514 33.8278 4.08267 30.43 8.3533 30.1861C14.2906 29.847 20.2508 29.6758 26.1531 29.6758C32.0555 29.6758 38.0158 29.847 43.953 30.1861C48.2238 30.43 51.6388 33.828 51.9089 38.097C52.4394 46.4784 52.4384 54.9028 51.907 63.2986C51.6367 67.568 48.2219 70.9661 43.951 71.2102C38.0083 71.5498 32.0558 71.7211 26.1531 71.7211Z" fill="url(#paint1_linear_1_787)"/>
<path d="M73.0508 75.82C57.3323 76.4078 41.6138 76.4078 25.8953 75.82C23.2802 75.7222 21.1119 73.7836 20.6859 71.2016C19.9486 66.7317 19.9486 62.262 20.6859 57.7923C21.1119 55.2103 23.2802 53.2717 25.8953 53.1739C41.6138 52.5861 57.3323 52.5861 73.0508 53.1739C75.6659 53.2717 77.8344 55.2103 78.2602 57.7923C78.9975 62.262 78.9975 66.7319 78.2602 71.2016C77.8344 73.7836 75.6659 75.7222 73.0508 75.82Z" fill="url(#paint2_linear_1_787)"/>
<path d="M35.2522 61.1929C34.9238 60.624 34.1964 60.4292 33.6275 60.7576L30.7192 62.4367V59.0784C30.7192 58.4215 30.1867 57.889 29.5299 57.889C28.873 57.889 28.3405 58.4215 28.3405 59.0784V62.4367L25.432 60.7575C24.8631 60.4289 24.1356 60.624 23.8074 61.1928C23.4789 61.7617 23.6738 62.489 24.2427 62.8175L27.1511 64.4967L24.2427 66.1759C23.6738 66.5044 23.4789 67.2317 23.8074 67.8006C24.0277 68.1822 24.4274 68.3954 24.8385 68.3954C25.0402 68.3954 25.2447 68.344 25.432 68.2359L28.3405 66.5567V69.915C28.3405 70.5719 28.873 71.1044 29.5299 71.1044C30.1867 71.1044 30.7192 70.5719 30.7192 69.915V66.5567L33.6275 68.2358C33.8149 68.3439 34.0194 68.3953 34.2211 68.3953C34.632 68.3953 35.0319 68.1819 35.2522 67.8004C35.5806 67.2315 35.3858 66.5042 34.8169 66.1758L31.9085 64.4965L34.8169 62.8173C35.3858 62.4892 35.5806 61.7619 35.2522 61.1929Z" fill="#665E66"/>
<path d="M48.3399 61.193C48.0114 60.6241 47.2839 60.4292 46.7152 60.7577L43.8067 62.4369V59.0786C43.8067 58.4217 43.2742 57.8892 42.6174 57.8892C41.9605 57.8892 41.428 58.4217 41.428 59.0786V62.4369L38.5195 60.7577C37.9506 60.4291 37.2233 60.6242 36.8949 61.193C36.5664 61.7619 36.7613 62.4892 37.3302 62.8177L40.2386 64.4969L37.3302 66.1761C36.7613 66.5045 36.5664 67.2319 36.8949 67.8008C37.1152 68.1823 37.5149 68.3956 37.9259 68.3956C38.1277 68.3956 38.3322 68.3442 38.5195 68.2361L41.428 66.5569V69.9152C41.428 70.572 41.9605 71.1045 42.6174 71.1045C43.2742 71.1045 43.8067 70.572 43.8067 69.9152V66.5569L46.7152 68.2361C46.9025 68.3442 47.107 68.3956 47.3088 68.3956C47.7197 68.3956 48.1195 68.1822 48.3399 67.8008C48.6683 67.2319 48.4734 66.5045 47.9045 66.1761L44.9961 64.4969L47.9045 62.8177C48.4733 62.4892 48.6683 61.7619 48.3399 61.193Z" fill="#665E66"/>
<path d="M61.4273 61.193C61.0989 60.6241 60.3714 60.4292 59.8027 60.7577L56.8942 62.4369V59.0786C56.8942 58.4217 56.3617 57.8892 55.7048 57.8892C55.048 57.8892 54.5155 58.4217 54.5155 59.0786V62.4369L51.607 60.7577C51.0381 60.4291 50.3108 60.6242 49.9823 61.193C49.6539 61.7619 49.8488 62.4892 50.4177 62.8177L53.3261 64.4969L50.4177 66.1761C49.8488 66.5045 49.6539 67.2319 49.9823 67.8008C50.2027 68.1823 50.6023 68.3956 51.0134 68.3956C51.2152 68.3956 51.4197 68.3442 51.607 68.2361L54.5155 66.5569V69.9152C54.5155 70.572 55.048 71.1045 55.7048 71.1045C56.3617 71.1045 56.8942 70.572 56.8942 69.9152V66.5569L59.8027 68.2361C59.99 68.3442 60.1945 68.3956 60.3963 68.3956C60.8072 68.3956 61.207 68.1822 61.4273 67.8008C61.7558 67.2319 61.5609 66.5045 60.992 66.1761L58.0836 64.4969L60.992 62.8177C61.5609 62.4892 61.7559 61.7619 61.4273 61.193Z" fill="#665E66"/>
<path d="M74.0797 66.1759L71.1713 64.4967L74.0797 62.8175C74.6486 62.4891 74.8435 61.7617 74.515 61.1928C74.1866 60.6239 73.4592 60.4291 72.8903 60.7575L69.9821 62.4366V59.0783C69.9821 58.4214 69.4496 57.8889 68.7927 57.8889C68.1358 57.8889 67.6033 58.4214 67.6033 59.0783V62.4366L64.6949 60.7573C64.1261 60.4288 63.3986 60.6239 63.0702 61.1927C62.7417 61.7616 62.9366 62.4889 63.5055 62.8174L66.4139 64.4966L63.5055 66.1758C62.9366 66.5042 62.7417 67.2316 63.0702 67.8005C63.2905 68.182 63.6902 68.3953 64.1013 68.3953C64.303 68.3953 64.5075 68.3439 64.6949 68.2358L67.6033 66.5566V69.9148C67.6033 70.5717 68.1358 71.1042 68.7927 71.1042C69.4496 71.1042 69.9821 70.5717 69.9821 69.9148V66.5566L72.8903 68.2356C73.0777 68.3438 73.2822 68.3952 73.4839 68.3952C73.8949 68.3952 74.2947 68.1817 74.515 67.8003C74.8435 67.2317 74.6486 66.5044 74.0797 66.1759Z" fill="#665E66"/>
<path d="M50.3953 23.2372C50.2249 23.2372 50.0519 23.2005 49.8875 23.1227C49.2938 22.8419 49.0402 22.1328 49.321 21.5389L51.615 16.6887C51.8958 16.095 52.6046 15.8411 53.1988 16.1222C53.7925 16.403 54.0461 17.112 53.7653 17.7059L51.4713 22.5561C51.2681 22.9856 50.841 23.2372 50.3953 23.2372Z" fill="white"/>
<path d="M57.56 32.0003C57.3895 32.0003 57.2166 31.9636 57.0524 31.8858L52.2022 29.5917C51.6085 29.3109 51.3547 28.6019 51.6356 28.0081C51.9164 27.4142 52.6255 27.1603 53.2192 27.4416L58.0694 29.7356C58.6631 30.0164 58.9169 30.7255 58.636 31.3192C58.4328 31.7486 58.0056 32.0003 57.56 32.0003Z" fill="white"/>
<path d="M52.8933 25.9923C52.405 25.9923 51.9474 25.6894 51.7735 25.2033C51.5522 24.5848 51.8741 23.9042 52.4927 23.6828L57.5444 21.8753C58.1627 21.6536 58.8436 21.9761 59.0649 22.5945C59.2861 23.213 58.9642 23.8936 58.3456 24.115L53.2939 25.9225C53.1614 25.9698 53.0263 25.9923 52.8933 25.9923Z" fill="white"/>
<defs>
<linearGradient id="paint0_linear_1_787" x1="26.0877" y1="60.9937" x2="26.0877" y2="2.55234" gradientUnits="userSpaceOnUse">
<stop stop-color="#1B1B1B"/>
<stop offset="1" stop-color="white"/>
</linearGradient>
<linearGradient id="paint1_linear_1_787" x1="26.1532" y1="71.721" x2="26.1532" y2="29.6758" gradientUnits="userSpaceOnUse">
<stop stop-color="#00B59C"/>
<stop offset="1" stop-color="#9CFFAC"/>
</linearGradient>
<linearGradient id="paint2_linear_1_787" x1="49.4731" y1="76.2609" x2="49.4731" y2="52.733" gradientUnits="userSpaceOnUse">
<stop stop-color="#C3FFE8"/>
<stop offset="0.9973" stop-color="#F0FFF4"/>
</linearGradient>
</defs>
</svg>
