<svg width="72" height="72" viewBox="0 0 72 72" fill="none" xmlns="http://www.w3.org/2000/svg">
<g clip-path="url(#clip0_1_809)">
<path d="M9.96236 37.3704C12.0119 36.8213 13.5336 35.0946 13.8198 32.9915C15.0034 24.3154 21.2277 16.7567 30.201 14.3523C35.1466 13.0271 40.1349 13.5073 44.5233 15.3448L41.7923 16.5494C40.8595 16.961 40.3093 17.936 40.4389 18.9472C40.5681 19.9579 41.3473 20.7633 42.3529 20.9261L59.91 23.7768C60.6795 23.9012 61.4593 23.6287 61.9833 23.0523C62.5061 22.4755 62.7027 21.6733 62.5053 20.9199L57.9606 3.63376C57.7029 2.65015 56.8299 1.95314 55.8146 1.91833C54.7978 1.88395 53.8795 2.51945 53.5547 3.48272L52.2647 7.30705C44.9881 3.18185 36.1594 1.7921 27.4601 4.12309C14.2695 7.65748 5.08701 18.7515 3.31783 31.4963C3.07128 33.2632 3.72748 35.0349 5.06328 36.2157C6.39923 37.3971 8.23898 37.8322 9.96236 37.3704Z" fill="url(#paint0_linear_1_809)"/>
<path d="M66.9403 35.7809C65.6042 34.5995 63.7644 34.1645 62.0411 34.6263C59.9915 35.1755 58.4699 36.9021 58.1837 39.0052C56.9999 47.6813 50.7756 55.2401 41.8025 57.6444C36.8568 58.9696 31.8685 58.4894 27.4799 56.652L30.2111 55.4477C31.1438 55.0361 31.694 54.0609 31.5646 53.0495C31.4353 52.039 30.6561 51.2334 29.6506 51.0706L12.0934 48.2199C11.3239 48.0957 10.5442 48.3679 10.02 48.9445C9.49735 49.5213 9.30067 50.3234 9.49818 51.0767L14.0428 68.3629C14.3004 69.3465 15.1733 70.0435 16.1887 70.0783C17.2055 70.1127 18.1239 69.477 18.4486 68.5136L19.7385 64.6893C27.0151 68.8148 35.8439 70.2045 44.5433 67.8735C57.7341 64.3391 66.9162 53.2453 68.6853 40.5005C68.9322 38.7335 68.276 36.9619 66.9403 35.7809Z" fill="url(#paint1_linear_1_809)"/>
</g>
<defs>
<linearGradient id="paint0_linear_1_809" x1="34.0024" y1="30.9288" x2="26.8627" y2="4.28314" gradientUnits="userSpaceOnUse">
<stop stop-color="#00B59C"/>
<stop offset="1" stop-color="#9CFFAC"/>
</linearGradient>
<linearGradient id="paint1_linear_1_809" x1="45.1407" y1="67.7135" x2="38.001" y2="41.0678" gradientUnits="userSpaceOnUse">
<stop stop-color="#C3FFE8"/>
<stop offset="0.9973" stop-color="#F0FFF4"/>
</linearGradient>
<clipPath id="clip0_1_809">
<rect width="72" height="72" fill="white"/>
</clipPath>
</defs>
</svg>
