<svg width="120" height="120" viewBox="0 0 120 120" fill="none" xmlns="http://www.w3.org/2000/svg">
<g clip-path="url(#clip0_1_818)">
<path d="M102.262 45.8529C100.889 44.4799 98.6625 44.4799 97.2898 45.8529L82.3601 60.7826C81.7008 61.4421 81.3302 62.3365 81.3302 63.2691C81.3302 64.2016 81.701 65.096 82.3605 65.7551C86.779 70.1712 89.7682 75.7144 91.0059 81.7854C91.3397 83.4227 92.7797 84.5988 94.4508 84.5988H115.814C116.822 84.5988 117.782 84.1659 118.449 83.4103C119.117 82.6547 119.427 81.6488 119.303 80.6482C117.671 67.5682 111.62 55.2108 102.262 45.8529ZM59.9747 81.1027C56.3037 81.1027 53.2943 83.8622 52.9741 87.5213C52.6165 91.6097 55.8443 95.1656 59.9824 95.1656C63.6532 95.1656 66.6628 92.4063 66.983 88.7468C67.3406 84.6584 64.113 81.1027 59.9747 81.1027ZM17.5781 21.3178H3.51562C1.57406 21.3178 0 22.8919 0 24.8334C0 26.775 1.57406 28.3491 3.51562 28.3491H17.5781C19.5197 28.3491 21.0938 26.775 21.0938 24.8334C21.0938 22.8919 19.5197 21.3178 17.5781 21.3178ZM102.422 28.3491H105.938V31.8647C105.938 33.8062 107.512 35.3803 109.453 35.3803C111.395 35.3803 112.969 33.8062 112.969 31.8647V28.3491H116.484C118.426 28.3491 120 26.775 120 24.8334C120 22.8919 118.426 21.3178 116.484 21.3178H112.969V17.8022C112.969 15.8606 111.395 14.2866 109.453 14.2866C107.512 14.2866 105.938 15.8606 105.938 17.8022V21.3178H102.422C100.48 21.3178 98.9062 22.8919 98.9062 24.8334C98.9062 26.775 100.48 28.3491 102.422 28.3491Z" fill="url(#paint0_linear_1_818)"/>
<path d="M82.3596 65.7539L90.9375 57.1762L102.261 45.8527C90.9715 34.5652 75.9625 28.3491 60 28.3491C29.909 28.3491 4.41443 50.8329 0.69724 80.6484C0.572552 81.649 0.883334 82.6547 1.5506 83.4103C2.21786 84.1659 3.17763 84.5988 4.18591 84.5988H25.5492C27.2201 84.5988 28.66 83.4227 28.994 81.7854C31.984 67.1191 45.0239 56.4741 60 56.4741C68.4368 56.4741 76.3776 59.7696 82.3596 65.7539ZM88.6671 67.5112L73.1318 76.4805C70.1367 73.0957 66.0304 71.0182 61.5105 70.6228C51.8327 69.776 43.3141 76.9226 42.4673 86.602C42.2538 89.0421 42.5472 91.448 43.301 93.7034L39.9588 95.633C36.8559 97.4245 38.1295 102.194 41.7199 102.194C43.2328 102.194 43.8621 101.369 46.8253 99.7877C49.8204 103.173 53.9266 105.25 58.4463 105.645C68.1234 106.493 76.6427 99.3457 77.4895 89.6662C77.703 87.2262 77.4096 84.8203 76.6558 82.5649L92.1825 73.6005C93.8639 72.6298 94.44 70.4796 93.4692 68.7982C92.4989 67.1168 90.3485 66.5407 88.6671 67.5112ZM63.4809 88.4405C63.3117 90.3748 61.6066 91.8056 59.6723 91.6364C57.738 91.4672 56.3072 89.7619 56.4764 87.8278C56.6456 85.8935 58.3507 84.4627 60.285 84.6319C62.2193 84.8011 63.6501 86.5064 63.4809 88.4405Z" fill="url(#paint1_linear_1_818)"/>
</g>
<defs>
<linearGradient id="paint0_linear_1_818" x1="60" y1="95.1656" x2="60" y2="14.2866" gradientUnits="userSpaceOnUse">
<stop stop-color="#C3FFE8"/>
<stop offset="0.9973" stop-color="#F0FFF4"/>
</linearGradient>
<linearGradient id="paint1_linear_1_818" x1="51.4659" y1="105.713" x2="51.4659" y2="28.3491" gradientUnits="userSpaceOnUse">
<stop stop-color="#00B59C"/>
<stop offset="1" stop-color="#9CFFAC"/>
</linearGradient>
<clipPath id="clip0_1_818">
<rect width="120" height="120" fill="white"/>
</clipPath>
</defs>
</svg>
